<svg width="26" height="23" viewBox="0 0 26 23" fill="none" xmlns="http://www.w3.org/2000/svg">
<path fill-rule="evenodd" clip-rule="evenodd" d="M2.925 6.38888C2.925 2.8604 5.83515 0 9.425 0H19.5C23.0898 0 26 2.8604 26 6.38889V16.6111C26 20.1396 23.0898 23 19.5 23H1.3C0.822257 23 0.383007 22.7424 0.156055 22.3292C-0.0708974 21.916 -0.0489781 21.4138 0.213139 21.0212L2.28559 17.9171C2.70275 17.2923 2.925 16.5613 2.925 15.8139V6.38888ZM9.425 2.55556C7.27109 2.55556 5.525 4.27179 5.525 6.38888V15.8139C5.525 17.0595 5.15458 18.2779 4.45931 19.3192L3.70806 20.4444H19.5C21.6539 20.4444 23.4 18.7282 23.4 16.6111V6.38889C23.4 4.2718 21.6539 2.55556 19.5 2.55556H9.425Z" fill="black"/>
</svg>
