<svg width="28" height="28" viewBox="0 0 28 28" fill="none" xmlns="http://www.w3.org/2000/svg">
<path d="M14 17.8519C16.0919 17.8519 18.0981 18.6635 19.5773 20.1082C20.1136 20.632 20.5647 21.2235 20.9219 21.8621C21.3397 22.6093 21.295 23.8126 20.9514 24.9873M14 17.8519C11.9081 17.8519 9.90191 18.6635 8.42273 20.1082C7.88642 20.632 7.43532 21.2235 7.07814 21.8621C6.66026 22.6093 6.70499 23.8126 7.04857 24.9873M14 17.8519C16.7226 17.8519 18.9297 15.6962 18.9297 13.037C18.9297 10.3779 16.7226 8.22222 14 8.22222C11.2774 8.22222 9.07034 10.3779 9.07034 13.037C9.07034 15.6962 11.2774 17.8519 14 17.8519ZM20.9514 24.9873C24.5868 22.6824 27 18.623 27 14C27 6.8203 21.1797 1 14 1C6.8203 1 1 6.8203 1 14C1 18.623 3.41317 22.6824 7.04857 24.9873M20.9514 24.9873C18.941 26.262 16.5567 27 14 27C11.4433 27 9.05905 26.262 7.04857 24.9873" stroke="black" stroke-width="1.5"/>
</svg>
